<svg width="25" height="25" viewBox="0 0 25 25" fill="none" xmlns="http://www.w3.org/2000/svg">
<g clipPath="url(#clip0_575_1497)">
<path d="M22.9167 11.5417V12.5C22.9154 14.7463 22.188 16.932 20.843 18.7311C19.4981 20.5302 17.6076 21.8464 15.4535 22.4833C13.2994 23.1201 10.9971 23.0437 8.89005 22.2652C6.78298 21.4868 4.98399 20.048 3.7614 18.1636C2.5388 16.2792 1.9581 14.0501 2.10589 11.8087C2.25369 9.56728 3.12207 7.43369 4.58152 5.72614C6.04097 4.01858 8.0133 2.82854 10.2043 2.33351C12.3954 1.83847 14.6878 2.06496 16.7396 2.97919" stroke="white" strokeWidth="3" strokeLinecap="round" strokeLinejoin="round"/>
<path d="M22.9167 4.16675L12.5 14.5938L9.375 11.4688" stroke="white" strokeWidth="3" strokeLinecap="round" strokeLinejoin="round"/>
</g>
<defs>
<clipPath id="clip0_575_1497">
<rect width="25" height="25" fill="white"/>
</clipPath>
</defs>
</svg>
