<svg width="65" height="65" viewBox="0 0 65 65" fill="none" xmlns="http://www.w3.org/2000/svg">
<g clipPath="url(#clip0_610_42)">
<path d="M8.85342 30.8369C8.82841 30.8369 8.8034 30.8369 8.77839 30.8369C8.2782 30.8118 7.90305 30.3617 7.92806 29.8615C7.97808 29.1362 8.07812 28.3859 8.17816 27.6606C9.95385 16.4063 18.7072 7.67788 29.9366 5.9272C30.4368 5.85217 30.887 6.1773 30.962 6.67749C31.037 7.17769 30.7119 7.62786 30.2117 7.70289C19.7576 9.32852 11.6045 17.4567 9.95385 27.9357C9.85381 28.611 9.77878 29.3113 9.72876 29.9865C9.70375 30.4867 9.30359 30.8369 8.85342 30.8369Z" fill="black"/>
<path d="M37.8646 57.5222C37.4145 57.5222 37.0393 57.1971 36.9643 56.7469C36.8893 56.2467 37.2144 55.7965 37.7146 55.7215C48.1686 54.0959 56.3218 45.9677 57.9724 35.4887C58.0475 34.9885 58.5226 34.6633 58.9978 34.7384C59.498 34.8134 59.8232 35.2886 59.7481 35.7638C57.9724 47.0181 49.219 55.7465 37.9897 57.4972C37.9647 57.5222 37.9147 57.5222 37.8646 57.5222Z" fill="black"/>
<path d="M26.1101 13.155C25.935 13.155 25.735 13.105 25.5849 12.9799C25.1848 12.6798 25.0847 12.1046 25.3848 11.7044L28.8362 7.00263L24.1343 3.5763C23.7342 3.27618 23.6341 2.70096 23.9343 2.3008C24.2344 1.90065 24.8096 1.80061 25.2098 2.10072L30.6369 6.07727C31.037 6.37738 31.1371 6.95261 30.8369 7.35276L26.8604 12.7799C26.6853 13.03 26.3852 13.155 26.1101 13.155Z" fill="black"/>
<path d="M43.3168 61.4987C43.1417 61.4987 42.9416 61.4487 42.7916 61.3237L37.3644 57.3471C36.9643 57.047 36.8643 56.4718 37.1644 56.0716L41.1409 50.6445C41.441 50.2444 42.0163 50.1443 42.4164 50.4445C42.8166 50.7446 42.9166 51.3198 42.6165 51.72L39.1651 56.4218L43.867 59.8731C44.2671 60.1732 44.3672 60.7485 44.067 61.1486C43.867 61.3737 43.5919 61.4987 43.3168 61.4987Z" fill="black"/>
<path d="M50.2945 24.1093C45.7928 24.1093 42.1414 20.4578 42.1414 15.9561C42.1414 11.4543 45.7928 7.80293 50.2945 7.80293C52.3203 7.80293 54.2711 8.55322 55.7967 9.92876C56.1718 10.2539 56.1968 10.8291 55.8467 11.2043C55.4965 11.5794 54.9463 11.6044 54.5712 11.2543C53.3957 10.1789 51.8951 9.60363 50.2945 9.60363C46.7932 9.60363 43.9671 12.4547 43.9671 15.9311C43.9671 19.4324 46.8182 22.2585 50.2945 22.2585C51.8701 22.2585 53.3957 21.6833 54.5712 20.6079C54.9463 20.2828 55.5215 20.3078 55.8467 20.6579C56.1718 21.0331 56.1468 21.6083 55.7967 21.9334C54.2711 23.359 52.3203 24.1093 50.2945 24.1093Z" fill="black"/>
<path d="M50.0194 14.6556H40.6157C40.1155 14.6556 39.7154 14.2554 39.7154 13.7552C39.7154 13.255 40.1155 12.8549 40.6157 12.8549H50.0194C50.5196 12.8549 50.9197 13.255 50.9197 13.7552C50.9197 14.2554 50.5196 14.6556 50.0194 14.6556Z" fill="black"/>
<path d="M50.0194 19.0573H40.6157C40.1155 19.0573 39.7154 18.6571 39.7154 18.1569C39.7154 17.6567 40.1155 17.2566 40.6157 17.2566H50.0194C50.5196 17.2566 50.9197 17.6567 50.9197 18.1569C50.9197 18.6571 50.5196 19.0573 50.0194 19.0573Z" fill="black"/>
<path d="M48.7939 31.6622C40.1406 31.6622 33.0878 24.6094 33.0878 15.9561C33.0878 7.30273 40.1406 0.25 48.7939 0.25C57.4473 0.25 64.5 7.30273 64.5 15.9561C64.5 24.6094 57.4473 31.6622 48.7939 31.6622ZM48.7939 2.07571C41.141 2.07571 34.9135 8.30312 34.9135 15.9561C34.9135 23.6091 41.141 29.8365 48.7939 29.8365C56.4469 29.8365 62.6743 23.6091 62.6743 15.9561C62.6743 8.30312 56.4469 2.07571 48.7939 2.07571Z" fill="black"/>
<path d="M15.7061 64.75C7.05273 64.75 0 57.6973 0 49.0439C0 40.3906 7.05273 33.3378 15.7061 33.3378C24.3594 33.3378 31.4122 40.3906 31.4122 49.0439C31.4122 57.6973 24.3594 64.75 15.7061 64.75ZM15.7061 35.1385C8.05312 35.1385 1.82571 41.3659 1.82571 49.0189C1.82571 56.6719 8.05312 62.8993 15.7061 62.8993C23.3591 62.8993 29.5865 56.6719 29.5865 49.0189C29.5865 41.391 23.3591 35.1385 15.7061 35.1385Z" fill="black"/>
<path d="M16.9066 55.6715H14.5057C12.4298 55.6715 10.7292 53.9708 10.7292 51.895C10.7292 51.3948 11.1293 50.9947 11.6295 50.9947C12.1297 50.9947 12.5299 51.3948 12.5299 51.895C12.5299 52.9704 13.4052 53.8458 14.4806 53.8458H16.8816C17.957 53.8458 18.8323 52.9704 18.8323 51.895C18.8323 50.8196 17.957 49.9443 16.8816 49.9443H14.5057C12.4298 49.9443 10.7292 48.2436 10.7292 46.1678C10.7292 44.092 12.4298 42.3913 14.5057 42.3913H16.9066C18.9824 42.3913 20.683 44.092 20.683 46.1678C20.683 46.668 20.2829 47.0682 19.7827 47.0682C19.2825 47.0682 18.8823 46.668 18.8823 46.1678C18.8823 45.0924 18.007 44.2171 16.9316 44.2171H14.5057C13.4302 44.2171 12.5549 45.0924 12.5549 46.1678C12.5549 47.2432 13.4302 48.1186 14.5057 48.1186H16.9066C18.9824 48.1186 20.683 49.8192 20.683 51.895C20.683 53.9708 18.9824 55.6715 16.9066 55.6715Z" fill="black"/>
<path d="M15.7061 44.217C15.2059 44.217 14.8058 43.8169 14.8058 43.3167V40.6657C14.8058 40.1655 15.2059 39.7653 15.7061 39.7653C16.2063 39.7653 16.6065 40.1655 16.6065 40.6657V43.3167C16.6065 43.8169 16.2063 44.217 15.7061 44.217Z" fill="black"/>
<path d="M15.7061 58.3225C15.2059 58.3225 14.8058 57.9224 14.8058 57.4222V54.7711C14.8058 54.2709 15.2059 53.8708 15.7061 53.8708C16.2063 53.8708 16.6065 54.2709 16.6065 54.7711V57.4222C16.6065 57.9224 16.2063 58.3225 15.7061 58.3225Z" fill="black"/>
</g>
<defs>
<clipPath id="clip0_610_42">
<rect width="64.5" height="64.5" fill="white" transform="translate(0 0.25)"/>
</clipPath>
</defs>
</svg>
