<svg width="89" height="68" viewBox="0 0 89 68" fill="none" xmlns="http://www.w3.org/2000/svg">
<path d="M44.2499 64.125H6.80762V6.75C6.80762 4.86964 8.31503 3.375 10.2115 3.375H40.8461C42.7425 3.375 44.2499 4.86964 44.2499 6.75V64.125Z" stroke="black" strokeWidth="3" strokeMiterlimit="10" strokeLinecap="round" strokeLinejoin="round"/>
<path d="M81.6923 64.125H44.25V16.875H78.2885C80.1849 16.875 81.6923 18.3696 81.6923 20.25V64.125Z" stroke="black" strokeWidth="3" strokeMiterlimit="10" strokeLinecap="round" strokeLinejoin="round"/>
<path d="M3.40381 64.125H85.0961" stroke="black" strokeWidth="3" strokeMiterlimit="10" strokeLinecap="round" strokeLinejoin="round"/>
<path d="M20.423 20.25H17.0192" stroke="black" strokeWidth="3" strokeMiterlimit="10" strokeLinecap="round" strokeLinejoin="round"/>
<path d="M34.0384 20.25H30.6345" stroke="black" strokeWidth="3" strokeMiterlimit="10" strokeLinecap="round" strokeLinejoin="round"/>
<path d="M57.8654 33.75H54.4615" stroke="black" strokeWidth="3" strokeMiterlimit="10" strokeLinecap="round" strokeLinejoin="round"/>
<path d="M71.4808 33.75H68.0769" stroke="black" strokeWidth="3" strokeMiterlimit="10" strokeLinecap="round" strokeLinejoin="round"/>
<path d="M57.8654 47.25H54.4615" stroke="black" strokeWidth="3" strokeMiterlimit="10" strokeLinecap="round" strokeLinejoin="round"/>
<path d="M71.4808 47.25H68.0769" stroke="black" strokeWidth="3" strokeMiterlimit="10" strokeLinecap="round" strokeLinejoin="round"/>
<path d="M20.423 33.75H17.0192" stroke="black" strokeWidth="3" strokeMiterlimit="10" strokeLinecap="round" strokeLinejoin="round"/>
<path d="M34.0384 33.75H30.6345" stroke="black" strokeWidth="3" strokeMiterlimit="10" strokeLinecap="round" strokeLinejoin="round"/>
<path d="M20.423 47.25H17.0192" stroke="black" strokeWidth="3" strokeMiterlimit="10" strokeLinecap="round" strokeLinejoin="round"/>
<path d="M34.0384 47.25H30.6345" stroke="black" strokeWidth="3" strokeMiterlimit="10" strokeLinecap="round" strokeLinejoin="round"/>
</svg>
