<svg width="67" height="66" viewBox="0 0 67 66" fill="none" xmlns="http://www.w3.org/2000/svg">
<g clipPath="url(#clip0_610_69)">
<path d="M62.2718 24.2814H61.477L56.9526 3.99773C56.4176 1.59973 54.0331 0.0723433 51.6181 0.606929L3.53117 11.3292C2.35422 11.5888 1.3454 12.2914 0.703429 13.3148C0.0614552 14.3229 -0.152536 15.5142 0.122596 16.675L7.21488 48.4294C7.44416 49.4528 8.0097 50.3234 8.77396 50.9496V61.29C8.77396 63.7491 10.7916 65.75 13.2831 65.75H62.2871C64.748 65.75 66.7503 63.7491 66.7503 61.29V28.7414C66.7503 26.2823 64.748 24.2814 62.2718 24.2814ZM3.31718 20.4019L55.6533 8.73263L56.8609 14.1549L4.5247 25.8241L3.31718 20.4019ZM57.3653 16.4154L59.1231 24.2814H22.0414L57.3653 16.4154ZM2.64464 14.5367C2.96562 14.0479 3.45475 13.6966 4.03558 13.5744L52.1225 2.85219C52.2753 2.82164 52.4435 2.79109 52.5963 2.79109C53.5898 2.79109 54.4917 3.47842 54.7057 4.48649L55.1489 6.4721L2.81277 18.1566L2.3695 16.1557C2.23194 15.5906 2.33893 15.0255 2.64464 14.5367ZM5.02911 28.0694L9.07966 27.1682C8.89624 27.657 8.77396 28.1915 8.77396 28.7414V44.8553L5.02911 28.0694ZM64.4423 61.29C64.4423 62.4967 63.4946 63.4589 62.2718 63.4589H13.2831C12.0755 63.4589 11.082 62.4814 11.082 61.29V50.3387V28.7414C11.082 27.55 12.0755 26.5725 13.2831 26.5725H60.5599H62.2718C63.4793 26.5725 64.4423 27.5195 64.4423 28.7414V61.29Z" fill="black"/>
<path d="M28.6443 39.0054C29.2862 39.0054 29.7907 38.4861 29.7907 37.8599V31.5976C29.7907 30.9561 29.271 30.4521 28.6443 30.4521H15.8965C15.2545 30.4521 14.7501 30.9714 14.7501 31.5976V37.8599C14.7501 38.5014 15.2698 39.0054 15.8965 39.0054H28.6443ZM17.0582 32.7432H27.4979V36.6991H17.0582V32.7432Z" fill="black"/>
<path d="M53.4673 46.2147C51.7859 46.2147 50.2115 46.8257 48.9734 47.8796C47.7354 46.8257 46.161 46.2147 44.4796 46.2147C40.5972 46.2147 37.4485 49.3611 37.4485 53.2407C37.4485 57.1355 40.5972 60.2972 44.4796 60.2972C46.1763 60.2972 47.7506 59.671 48.9734 58.6324C50.2115 59.6863 51.7706 60.2972 53.4673 60.2972C57.365 60.2972 60.529 57.1355 60.529 53.2407C60.529 49.3611 57.3497 46.2147 53.4673 46.2147ZM39.7413 53.2407C39.7413 50.6289 41.8659 48.5211 44.4643 48.5211C45.8859 48.5211 47.1851 49.132 48.0869 50.2317C48.8053 51.0413 49.1874 52.1104 49.1874 53.2407C49.1874 54.371 48.79 55.4401 48.0563 56.2955C47.1851 57.3799 45.8859 57.9909 44.4643 57.9909C41.8659 57.9909 39.7413 55.8678 39.7413 53.2407ZM53.4673 57.9909C52.3515 57.9909 51.2968 57.609 50.4714 56.9064C50.4867 56.8911 50.4867 56.8606 50.502 56.8453C50.7924 56.3718 51.0064 55.8678 51.1745 55.3332C51.2204 55.211 51.2509 55.0888 51.2815 54.9514C51.4191 54.4015 51.5108 53.8211 51.5108 53.2407C51.5108 52.645 51.4191 52.0799 51.2815 51.53C51.2509 51.4078 51.2204 51.2856 51.1898 51.1634C51.0216 50.6289 50.8077 50.1095 50.5172 49.6361C50.502 49.6208 50.502 49.6055 50.502 49.5902C51.3274 48.9029 52.3667 48.5211 53.4825 48.5211C56.1116 48.5211 58.2362 50.6441 58.2362 53.2407C58.2209 55.8678 56.081 57.9909 53.4673 57.9909Z" fill="black"/>
<path d="M16.5843 50.1707C15.9423 50.1707 15.4379 50.69 15.4379 51.3162C15.4379 51.9577 15.9576 52.4617 16.5843 52.4617H26.1833C26.8253 52.4617 27.3297 51.9424 27.3297 51.3162C27.3297 50.6747 26.81 50.1707 26.1833 50.1707H16.5843Z" fill="black"/>
<path d="M30.937 55.822H16.5996C15.9576 55.822 15.4532 56.3413 15.4532 56.9675C15.4532 57.609 15.9729 58.1131 16.5996 58.1131H30.937C31.579 58.1131 32.0834 57.5937 32.0834 56.9675C32.0834 56.3413 31.5637 55.822 30.937 55.822Z" fill="black"/>
<path d="M52.4584 32.7432H58.7253C59.3673 32.7432 59.8717 32.2238 59.8717 31.5976C59.8717 30.9714 59.352 30.4521 58.7253 30.4521H52.4584C51.8164 30.4521 51.312 30.9714 51.312 31.5976C51.312 32.2238 51.8164 32.7432 52.4584 32.7432Z" fill="black"/>
<path d="M48.7747 39.0054H58.7253C59.3673 39.0054 59.8717 38.4861 59.8717 37.8599C59.8717 37.2337 59.352 36.7144 58.7253 36.7144H48.7747C48.1328 36.7144 47.6284 37.2337 47.6284 37.8599C47.6284 38.4861 48.1328 39.0054 48.7747 39.0054Z" fill="black"/>
</g>
<defs>
<clipPath id="clip0_610_69">
<rect width="66.75" height="65.25" fill="white" transform="translate(0 0.5)"/>
</clipPath>
</defs>
</svg>
