<svg width="90" height="45" viewBox="0 0 90 45" fill="none" xmlns="http://www.w3.org/2000/svg">
<g clipPath="url(#clip0_610_92)">
<path fillRule="evenodd" clipRule="evenodd" d="M86.7958 45H55.7553C55.4442 45 55.1677 44.8609 54.9603 44.5827L51.6765 40.0618L48.3927 44.5827C48.2199 44.8261 47.9088 45 47.5977 45H2.48877C1.14069 45 0.0345662 43.8872 0.0345662 42.5309V29.4204C0.0345662 28.864 0.483927 28.4467 1.00242 28.4467C4.25165 28.4467 6.87868 25.8037 6.87868 22.5348C6.87868 19.2658 4.25165 16.6229 1.00242 16.6229C0.449361 16.6229 0.0345662 16.1708 0.0345662 15.6491L0 2.46909C0 1.11283 1.10612 0 2.4542 0H47.5631C47.8742 0 48.1507 0.139104 48.3581 0.417311L51.6419 4.93818L54.9257 0.417311C55.0986 0.173879 55.4097 0 55.7208 0H86.7612C88.1093 0 89.2154 1.11283 89.2154 2.46909V15.5796C89.2154 16.136 88.7661 16.5533 88.2476 16.5533C84.9983 16.5533 82.3713 19.1963 82.3713 22.4652C82.3713 25.7342 84.9983 28.3771 88.2476 28.3771C88.8006 28.3771 89.2154 28.8292 89.2154 29.3509V42.4614C89.25 43.8872 88.1439 45 86.7958 45ZM56.2392 43.0526H86.7958C87.0723 43.0526 87.3143 42.8091 87.3143 42.5309V30.3246C83.4429 29.8377 80.4702 26.534 80.4702 22.5C80.4702 18.5008 83.4774 15.1623 87.3143 14.6754V2.46909C87.3143 2.19088 87.0723 1.94745 86.7958 1.94745H56.2392L52.437 7.16383C52.2641 7.40726 51.953 7.58114 51.6419 7.58114C51.3308 7.58114 51.0543 7.44204 50.8469 7.16383L47.0446 1.94745H2.4542C2.17767 1.94745 1.93571 2.19088 1.93571 2.46909V14.6754C5.80713 15.1623 8.77982 18.466 8.77982 22.5C8.77982 26.4992 5.77256 29.8377 1.93571 30.3246V42.5309C1.93571 42.8091 2.17767 43.0526 2.4542 43.0526H47.0792L50.8815 37.8362C51.0543 37.5927 51.3654 37.4189 51.6765 37.4189C51.9876 37.4189 52.2641 37.558 52.4715 37.8362L56.2392 43.0526Z" fill="black"/>
<path fillRule="evenodd" clipRule="evenodd" d="M25.9592 38.4621H21.9841C21.673 38.4621 21.3619 38.2883 21.1891 38.0448C21.0162 37.7666 20.9817 37.4189 21.0854 37.1407L25.4407 26.4297L20.1175 26.3253L15.935 30.4985C15.693 30.7419 15.3474 30.881 14.9671 30.881H13.1697C12.7203 30.881 12.3056 30.6723 12.0636 30.2898C11.8216 29.9073 11.7871 29.4204 11.9599 29.0031L14.6906 22.5L11.9599 15.9969C11.7871 15.5796 11.8216 15.0927 12.0636 14.7102C12.3056 14.3277 12.7203 14.119 13.1697 14.119H14.9671C15.3128 14.119 15.6585 14.2581 15.935 14.5016L20.1175 18.7094L25.4407 18.6051L21.0854 7.89413C20.9471 7.58115 20.9817 7.23339 21.1891 6.98996C21.3619 6.71175 21.673 6.57265 21.9841 6.57265H25.9246C26.3049 6.57265 26.6505 6.7813 26.7888 7.12906L32.3194 18.5008L37.0204 18.3964H37.055C37.2278 18.3964 41.5486 18.5008 42.793 22.0479C42.8967 22.3957 42.8967 22.7434 42.793 23.0564C41.5486 26.5688 37.2278 26.7079 37.055 26.7079H37.0204L32.3194 26.6036L26.7888 37.9753C26.6505 38.2535 26.3049 38.4621 25.9592 38.4621ZM23.4359 36.5147H25.337L30.8676 25.143C31.0404 24.7952 31.3861 24.5866 31.7663 24.5866L37.055 24.7257C37.2969 24.7257 40.0968 24.5518 40.9264 22.5348C40.0968 20.483 37.2969 20.3439 37.055 20.3439L31.7663 20.483C31.3861 20.483 31.0404 20.2743 30.8676 19.9266L25.337 8.55487H23.4359L27.7567 19.2311C27.8604 19.5441 27.8604 19.857 27.653 20.1352C27.4801 20.4135 27.169 20.5873 26.8579 20.5873L19.7027 20.7264C19.4262 20.7264 19.1842 20.6221 18.9768 20.4482L14.7252 16.0665H14.103L16.5918 21.9784C16.73 22.3261 16.73 22.6739 16.5918 23.0216L14.103 28.9335H14.7252L19.0114 24.5866C19.1842 24.4127 19.4608 24.2736 19.7373 24.3083L26.8925 24.4475C27.2036 24.4475 27.5147 24.6213 27.6875 24.8995C27.8604 25.1777 27.8949 25.5255 27.7912 25.8037L23.4359 36.5147Z" fill="black"/>
<path fillRule="evenodd" clipRule="evenodd" d="M51.6419 14.432C51.0889 14.432 50.6741 13.9799 50.6741 13.4583V10.5023C50.6741 9.94591 51.1234 9.52859 51.6419 9.52859C52.195 9.52859 52.6098 9.98068 52.6098 10.5023V13.4583C52.6443 14.0147 52.195 14.432 51.6419 14.432Z" fill="black"/>
<path fillRule="evenodd" clipRule="evenodd" d="M51.6419 21.4567C51.0889 21.4567 50.6741 21.0046 50.6741 20.483V17.5271C50.6741 16.9706 51.1234 16.5533 51.6419 16.5533C52.195 16.5533 52.6098 17.0054 52.6098 17.5271V20.483C52.6443 21.0046 52.195 21.4567 51.6419 21.4567Z" fill="black"/>
<path fillRule="evenodd" clipRule="evenodd" d="M51.6419 28.4814C51.0889 28.4814 50.6741 28.0294 50.6741 27.5077V24.5518C50.6741 23.9954 51.1234 23.578 51.6419 23.578C52.195 23.578 52.6098 24.0301 52.6098 24.5518V27.5077C52.6443 28.0294 52.195 28.4814 51.6419 28.4814Z" fill="black"/>
<path fillRule="evenodd" clipRule="evenodd" d="M51.6419 35.5062C51.0889 35.5062 50.6741 35.0541 50.6741 34.5325V31.5765C50.6741 31.0201 51.1234 30.6028 51.6419 30.6028C52.195 30.6028 52.6098 31.0549 52.6098 31.5765V34.5325C52.6443 35.0541 52.195 35.5062 51.6419 35.5062Z" fill="black"/>
<path fillRule="evenodd" clipRule="evenodd" d="M76.4259 17.9791H57.1034C56.5503 17.9791 56.1355 17.5271 56.1355 17.0054V10.5023C56.1355 9.94591 56.5849 9.52859 57.1034 9.52859H76.4259C76.9789 9.52859 77.3937 9.98068 77.3937 10.5023V17.0054C77.3937 17.5271 76.9789 17.9791 76.4259 17.9791ZM58.1058 16.0317H75.458V11.476H58.1058V16.0317Z" fill="black"/>
<path fillRule="evenodd" clipRule="evenodd" d="M76.4259 24.2388H57.1034C56.5503 24.2388 56.1355 23.7867 56.1355 23.2651C56.1355 22.7087 56.5849 22.2914 57.1034 22.2914H76.4259C76.9789 22.2914 77.3937 22.7434 77.3937 23.2651C77.3937 23.8215 76.9789 24.2388 76.4259 24.2388Z" fill="black"/>
<path fillRule="evenodd" clipRule="evenodd" d="M76.4259 29.8725H57.1034C56.5503 29.8725 56.1355 29.4204 56.1355 28.8988C56.1355 28.3424 56.5849 27.925 57.1034 27.925H76.4259C76.9789 27.925 77.3937 28.3771 77.3937 28.8988C77.3937 29.4204 76.9789 29.8725 76.4259 29.8725Z" fill="black"/>
<path fillRule="evenodd" clipRule="evenodd" d="M76.4259 35.5062H57.1034C56.5503 35.5062 56.1355 35.0541 56.1355 34.5325C56.1355 33.976 56.5849 33.5587 57.1034 33.5587H76.4259C76.9789 33.5587 77.3937 34.0108 77.3937 34.5325C77.3937 35.0541 76.9789 35.5062 76.4259 35.5062Z" fill="black"/>
</g>
<defs>
<clipPath id="clip0_610_92">
<rect width="89.25" height="45" fill="white"/>
</clipPath>
</defs>
</svg>
