<svg width="43" height="75" viewBox="0 0 43 75" fill="none" xmlns="http://www.w3.org/2000/svg">
<path d="M23.9726 55.621C23.4737 55.4312 22.9168 55.679 22.7269 56.1778L21.8965 58.3468C21.6293 59.029 21.1272 59.5922 20.4802 59.9397L6.46267 67.4283C5.96055 67.6954 5.39728 67.8209 4.834 67.7855C3.75572 67.7211 2.8062 67.1161 2.29764 66.1636C1.91139 65.4395 1.8277 64.606 2.06589 63.8208C2.30408 63.0356 2.83517 62.3887 3.55938 62.0025L16.2605 55.2188C16.4633 55.1094 16.621 54.9324 16.7047 54.7167L18.0179 51.3281C18.211 50.8293 17.9632 50.2725 17.4675 50.0795C16.9686 49.8864 16.4118 50.1342 16.2186 50.6297L15.0342 53.687L2.6517 60.3002C1.47043 60.9309 0.607806 61.9832 0.218339 63.2608C-0.171127 64.5416 -0.0359404 65.8965 0.594931 67.0743C1.00693 67.8434 1.61205 68.4935 2.34592 68.9537C3.05726 69.401 3.87803 69.6616 4.71812 69.7131C5.63868 69.7678 6.55602 69.5651 7.37036 69.1307L21.3879 61.6421C22.4404 61.0789 23.258 60.1586 23.6925 59.0483C23.6925 59.0451 23.6957 59.0451 23.6957 59.0419L24.5262 56.8697C24.7193 56.3709 24.4715 55.8109 23.9726 55.621Z" fill="black"/>
<path d="M26.8758 17.0906C29.1579 17.2258 31.3531 16.4631 33.0622 14.9474C34.7714 13.4316 35.7853 11.3399 35.9204 9.05821C36.0556 6.77657 35.2928 4.58182 33.7768 2.873C32.2607 1.16419 30.1686 0.150483 27.8865 0.0153224C25.6044 -0.119838 23.4092 0.642854 21.7001 2.15858C19.9909 3.67431 18.9771 5.76608 18.8419 8.04772C18.7067 10.3294 19.4695 12.5241 20.9855 14.2329C22.5016 15.9417 24.5937 16.9555 26.8758 17.0906ZM20.7699 8.16358C20.9855 4.52068 24.127 1.73057 27.7706 1.94619C31.4142 2.1618 34.2049 5.30268 33.9892 8.94558C33.7736 12.5885 30.6321 15.3786 26.9885 15.163C23.3449 14.9474 20.5542 11.8065 20.7699 8.16358Z" fill="black"/>
<path d="M42.4673 38.3527C42.0972 37.31 41.3472 36.4668 40.3494 35.9809C40.3301 35.9713 40.3108 35.9616 40.2915 35.9519L32.4345 32.2704L32.4249 25.4513C32.4249 25.4416 32.4249 25.4319 32.4249 25.4191C32.4249 25.3965 32.4249 25.3676 32.4217 25.3451C32.4184 25.2292 32.4184 25.0586 32.412 24.9396C32.3702 23.2597 31.7103 21.6668 30.5451 20.4439C29.3606 19.2017 27.7642 18.4615 26.0486 18.3585C25.3855 18.3199 24.7257 18.3779 24.0851 18.5291C23.3899 18.6932 22.3857 19.0891 21.4619 19.5621C21.1175 19.7391 20.7216 19.9579 20.3353 20.2057C20.1068 19.7198 19.7688 19.2886 19.3407 18.9378C18.491 18.2459 17.387 17.9692 16.3151 18.1815L12.5943 18.9217C12.5396 18.9314 12.4881 18.9475 12.4398 18.9668C10.8272 19.5814 9.54936 20.859 8.93781 22.4745L7.05163 27.4433C7.04519 27.4561 7.03875 27.469 7.03232 27.4883C6.48835 28.7112 6.22763 30.1272 6.2566 31.6976L6.18579 40.7695C6.18579 40.7759 6.18579 40.7823 6.18579 40.7855C6.19545 41.8379 6.63641 42.813 7.425 43.5306C8.21359 44.2482 9.29508 44.6698 10.5504 44.7438C10.5568 44.7438 10.56 44.7438 10.5665 44.7438L17.9406 45.0528C17.9502 45.0528 17.9567 45.0528 17.9663 45.0528C18.0854 45.5323 18.2625 46.0118 18.4942 46.4816C18.9448 47.3955 19.5854 48.2323 20.345 48.9048C20.3643 48.9241 20.3868 48.9467 20.4061 48.9628L28.7298 56.1778L31.0923 70.7912C31.2758 71.9208 31.8455 72.9634 32.6985 73.7261C33.5386 74.4759 34.6168 74.9265 35.737 74.9908C36.1039 75.0134 36.4708 74.9941 36.8378 74.9361C39.564 74.4952 41.4244 71.9208 40.9835 69.195L38.328 52.7794C38.1413 51.6145 37.5427 50.5525 36.6511 49.7834L29.2866 43.4469C28.8843 43.0994 28.2727 43.1444 27.9251 43.5467C27.5775 43.9489 27.6225 44.5604 28.0249 44.9079L35.3829 51.2508C35.9333 51.7239 36.297 52.3772 36.4129 53.0916L39.0683 69.5072C39.3387 71.1806 38.1961 72.7639 36.5223 73.0342C36.297 73.0696 36.0685 73.0825 35.8464 73.0696C34.4237 72.986 33.2231 71.9015 32.9946 70.4887L30.5773 55.5309C30.5419 55.3089 30.4293 55.1029 30.2555 54.9549L21.7258 47.5597C21.7097 47.5436 21.6904 47.5275 21.6743 47.5114C20.9147 46.8517 20.0746 45.7286 19.801 44.4445C19.8461 44.4059 19.8911 44.3673 19.9362 44.3255C20.4737 43.817 20.7827 43.1026 20.7827 42.3656C20.7827 42.3528 20.7827 42.3399 20.7827 42.327L20.6765 39.7461C22.4307 39.0092 23.686 37.7798 24.4843 36.779C24.5519 36.9174 24.6259 37.0525 24.7096 37.1845C25.1248 37.8442 25.717 38.3752 26.4187 38.7195C26.438 38.7292 26.4574 38.7388 26.4767 38.7485L36.7315 43.5531C36.7541 43.5628 36.7734 43.5724 36.7959 43.5821C38.8784 44.5153 41.3375 43.6078 42.3096 41.5354C42.7795 40.5281 42.8375 39.3985 42.4673 38.3527ZM18.6101 42.9192C18.4556 43.064 18.2528 43.138 18.0404 43.1251C18.0339 43.1251 18.0307 43.1251 18.0243 43.1251L10.6502 42.8162C9.12127 42.7229 8.12668 41.9215 8.11059 40.7759L8.1814 31.7008C8.1814 31.6912 8.1814 31.6815 8.1814 31.6751C8.15565 30.3846 8.36165 29.2422 8.78974 28.2768C8.81227 28.2253 8.83159 28.1834 8.84768 28.1416L10.7371 23.1632C11.1459 22.0883 11.9859 21.2323 13.0513 20.8043L16.6885 20.0802C17.1971 19.9805 17.7153 20.1092 18.1176 20.4374C18.5103 20.7593 18.7388 21.2291 18.7517 21.7343L18.5135 25.3161C18.3622 27.601 18.3333 29.9212 18.4266 32.2125L18.8483 42.3849C18.8451 42.5877 18.7614 42.7776 18.6101 42.9192ZM40.5618 40.7115C40.0372 41.8314 38.7078 42.3206 37.5845 41.8153C37.5716 41.8089 37.562 41.8057 37.5491 41.7993L27.2942 36.9946C27.2846 36.9914 27.2749 36.985 27.2653 36.9785C26.4863 36.5988 26.0003 35.8264 25.9939 34.9608L26.0164 27.601C26.0132 27.0667 25.5786 26.6387 25.0443 26.642C24.51 26.6452 24.0819 27.0796 24.0851 27.6138L24.0658 34.1595C24.0143 34.2174 23.9693 34.285 23.9339 34.3558C23.921 34.3815 22.8138 36.5698 20.5928 37.7831L20.3579 32.1288C20.2645 29.9083 20.2935 27.6589 20.4415 25.4416L20.6443 22.3941C21.3364 21.6925 23.4157 20.6756 24.5261 20.4117C24.9832 20.3023 25.4563 20.2637 25.9295 20.2894C28.4401 20.4374 30.4421 22.5228 30.4808 25.0329C30.4808 25.0812 30.4904 25.3965 30.4904 25.403C30.4904 25.4223 30.4872 25.4448 30.4872 25.4641L30.5033 32.8915C30.5065 33.2648 30.7222 33.6027 31.0601 33.7604L39.4707 37.7026C39.4803 37.709 39.4932 37.7123 39.5029 37.7187C40.6069 38.2561 41.0833 39.5981 40.5618 40.7115Z" fill="black"/>
<path d="M15.0727 30.6678L12.0535 30.6421C10.9784 30.6324 10.0933 31.5013 10.0836 32.5794L10.0321 38.5393C10.0289 39.0607 10.2253 39.553 10.5922 39.9263C10.9591 40.2996 11.4452 40.5056 11.9698 40.5088L14.989 40.5345C14.9954 40.5345 15.0019 40.5345 15.0051 40.5345C15.5201 40.5345 16.0061 40.335 16.373 39.9746C16.7464 39.6077 16.9524 39.1218 16.9556 38.5972L17.0071 32.6373C17.02 31.5592 16.1509 30.6775 15.0727 30.6678ZM15.1564 38.5812C15.1564 38.6326 15.1306 38.668 15.1113 38.6874C15.092 38.7067 15.0566 38.7292 15.0051 38.7292L11.9859 38.7034C11.9344 38.7034 11.899 38.6777 11.8797 38.6584C11.8604 38.6391 11.8346 38.6037 11.8379 38.5522L11.8668 34.9704L15.1885 34.9769L15.1564 38.5812ZM15.2046 33.1779L11.8829 33.1715L11.8893 32.5955C11.8893 32.5118 11.9569 32.4474 12.0406 32.4474L15.0598 32.4732C15.1435 32.4732 15.2111 32.5408 15.2079 32.6244L15.2046 33.1779Z" fill="black"/>
</svg>
