<svg width="75" height="57" viewBox="0 0 75 57" fill="none" xmlns="http://www.w3.org/2000/svg">
<g clipPath="url(#clip0_609_24)">
<path d="M15.8214 57C11.1255 57 7.32159 53.2441 7.32159 48.6444C7.32159 44.0282 11.1423 40.2888 15.8214 40.2888C20.5173 40.2888 24.3211 44.0447 24.3211 48.6444C24.3211 53.2441 20.5173 57 15.8214 57ZM15.8214 42.6218C12.4551 42.6218 9.71163 45.3187 9.71163 48.6279C9.71163 51.937 12.4551 54.634 15.8214 54.634C19.1876 54.634 21.9311 51.937 21.9311 48.6279C21.9311 45.3187 19.1876 42.6218 15.8214 42.6218Z" fill="black"/>
<path d="M15.8214 52.8636C13.4481 52.8636 11.5294 50.9774 11.5294 48.6444C11.5294 46.3115 13.4481 44.4252 15.8214 44.4252C18.1946 44.4252 20.1133 46.3115 20.1133 48.6444C20.1133 50.9608 18.1946 52.8636 15.8214 52.8636ZM15.8214 46.7582C14.7778 46.7582 13.9194 47.602 13.9194 48.6279C13.9194 49.6537 14.7778 50.4975 15.8214 50.4975C16.8649 50.4975 17.7233 49.6537 17.7233 48.6279C17.7233 47.602 16.8649 46.7582 15.8214 46.7582Z" fill="black"/>
<path d="M59.1786 52.8636C56.8054 52.8636 54.8867 50.9774 54.8867 48.6444C54.8867 46.3115 56.8054 44.4252 59.1786 44.4252C61.5518 44.4252 63.4706 46.3115 63.4706 48.6444C63.4706 50.9608 61.5518 52.8636 59.1786 52.8636ZM59.1786 46.7582C58.1351 46.7582 57.2767 47.602 57.2767 48.6279C57.2767 49.6537 58.1351 50.4975 59.1786 50.4975C60.2222 50.4975 61.0806 49.6537 61.0806 48.6279C61.0806 47.602 60.239 46.7582 59.1786 46.7582Z" fill="black"/>
<path d="M59.1786 57C54.4827 57 50.6788 53.2441 50.6788 48.6444C50.6788 44.0282 54.4995 40.2888 59.1786 40.2888C63.8577 40.2888 67.6784 44.0447 67.6784 48.6444C67.6952 53.2441 63.8745 57 59.1786 57ZM59.1786 42.6218C55.8124 42.6218 53.0689 45.3187 53.0689 48.6279C53.0689 51.937 55.8124 54.634 59.1786 54.634C62.5449 54.634 65.2883 51.937 65.2883 48.6279C65.3052 45.3187 62.5617 42.6218 59.1786 42.6218Z" fill="black"/>
<path d="M73.805 57H4.19099C3.53457 57 2.99597 56.4705 2.99597 55.8253C2.99597 55.18 3.53457 54.6505 4.19099 54.6505H73.805C74.4614 54.6505 75 55.18 75 55.8253C75 56.4705 74.4614 57 73.805 57Z" fill="black"/>
<path d="M36.2208 43.78H32.4338C31.7774 43.78 31.2388 43.2505 31.2388 42.6052V16.2644C31.2388 15.6192 31.7774 15.0897 32.4338 15.0897C33.0902 15.0897 33.6288 15.6192 33.6288 16.2644V41.4305H36.2208C36.8772 41.4305 37.4158 41.9599 37.4158 42.6052C37.4158 43.2671 36.8772 43.78 36.2208 43.78Z" fill="black"/>
<path d="M27.6537 30.9405C26.9973 30.9405 26.4587 30.411 26.4587 29.7657V16.2644C26.4587 15.6192 26.9973 15.0897 27.6537 15.0897C28.3101 15.0897 28.8487 15.6192 28.8487 16.2644V29.7492C28.8487 30.411 28.3101 30.9405 27.6537 30.9405Z" fill="black"/>
<path d="M73.805 43.5318C73.603 43.5318 73.401 43.4821 73.2159 43.3663L67.0388 39.8752C66.6685 39.6601 66.4497 39.2795 66.4497 38.8659V32.9922C66.4497 32.3469 66.9883 31.8174 67.6447 31.8174C68.3011 31.8174 68.8397 32.3469 68.8397 32.9922V38.1875L74.4277 41.3643C75 41.6952 75.202 42.4067 74.8653 42.9692C74.6297 43.3332 74.2257 43.5318 73.805 43.5318Z" fill="black"/>
<path d="M5.16719 41.629H1.19502C0.5386 41.629 0 41.0996 0 40.4543V35.3251C0 34.6798 0.5386 34.1504 1.19502 34.1504H5.16719C6.74933 34.1504 8.04533 35.4244 8.04533 36.9797V38.7997C8.04533 40.355 6.76616 41.629 5.16719 41.629ZM2.39004 39.2795H5.16719C5.43649 39.2795 5.6553 39.0644 5.6553 38.7997V36.9797C5.6553 36.7149 5.43649 36.4999 5.16719 36.4999H2.39004V39.2795Z" fill="black"/>
<path d="M55.1055 12.7567C54.4491 12.7567 53.9105 12.2273 53.9105 11.582V10.0267C53.9105 9.38142 54.4491 8.85196 55.1055 8.85196C55.7619 8.85196 56.3005 9.38142 56.3005 10.0267V11.582C56.3005 12.2273 55.7619 12.7567 55.1055 12.7567Z" fill="black"/>
<path d="M55.1055 34.4151C46.6057 34.4151 39.688 27.6148 39.688 19.2592C39.688 10.9036 46.6057 4.10333 55.1055 4.10333C63.6052 4.10333 70.5229 10.9036 70.5229 19.2592C70.506 27.6313 63.6052 34.4151 55.1055 34.4151ZM55.1055 6.46937C47.9185 6.46937 42.0781 12.2107 42.0781 19.2758C42.0781 26.3408 47.9185 32.0821 55.1055 32.0821C62.2924 32.0821 68.1328 26.3408 68.1328 19.2758C68.1328 12.2107 62.2756 6.46937 55.1055 6.46937Z" fill="black"/>
<path d="M40.1257 30.9405H9.59381C9.17303 30.9405 8.76908 30.7088 8.55027 30.3448C8.33147 29.9808 8.33147 29.5341 8.55027 29.1701L14.5085 19.1599C16.0065 16.645 18.7668 15.0897 21.7123 15.0897H36.9446C37.298 15.0897 37.6347 15.2386 37.8535 15.5033C38.0723 15.7681 38.1733 16.1155 38.1228 16.463C37.9545 17.4723 37.8703 18.3988 37.8703 19.2758C37.8703 22.8 38.9812 26.1919 41.0851 29.0874C41.3375 29.4514 41.3712 29.9147 41.1692 30.3118C40.9841 30.6923 40.5633 30.9405 40.1257 30.9405ZM11.6809 28.591H37.9545C36.3387 25.7451 35.4971 22.5684 35.4971 19.2758C35.4971 18.6801 35.5308 18.0845 35.5981 17.4557H21.7291C19.6252 17.4557 17.656 18.5643 16.5788 20.3512L11.6809 28.591Z" fill="black"/>
<path d="M69.6813 49.8026H66.5002C65.8438 49.8026 65.3052 49.2732 65.3052 48.6279C65.3052 45.3187 62.5617 42.6218 59.1955 42.6218C55.8292 42.6218 53.0857 45.3187 53.0857 48.6279C53.0857 49.2732 52.5471 49.8026 51.8907 49.8026H23.1261C22.4697 49.8026 21.9311 49.2732 21.9311 48.6279C21.9311 45.3187 19.1876 42.6218 15.8214 42.6218C12.4551 42.6218 9.71163 45.3187 9.71163 48.6279C9.71163 49.2732 9.17303 49.8026 8.51661 49.8026H5.31867C2.39004 49.8026 0 47.4697 0 44.5742V33.3727C0 31.8009 1.09403 30.4607 2.6425 30.1132L9.34134 28.6076C9.42549 28.591 9.50965 28.5745 9.61064 28.5745H40.1257C40.5128 28.5745 40.8662 28.7565 41.1019 29.0708C44.3335 33.5216 49.568 36.1855 55.1055 36.1855C59.8014 36.1855 64.1775 34.3489 67.4596 31.0398C67.8131 30.6758 68.3685 30.5765 68.8398 30.7916C71.011 31.8174 72.9634 33.1245 74.6465 34.6798C74.8822 34.8949 75.0168 35.2093 75.0168 35.5402V44.5742C75 47.4697 72.61 49.8026 69.6813 49.8026ZM67.6111 47.4531H69.6813C71.2971 47.4531 72.61 46.1626 72.61 44.5742V36.0697C71.3981 34.9942 70.018 34.0676 68.5368 33.29C64.8844 36.6819 60.138 38.5515 55.1055 38.5515C49.0126 38.5515 43.2226 35.7222 39.5197 30.9405H9.72846L3.16427 32.4131C2.70983 32.5123 2.3732 32.9094 2.3732 33.3727V44.5742C2.3732 46.1626 3.68604 47.4531 5.30184 47.4531H7.37208C7.96118 43.3994 11.5126 40.2723 15.7877 40.2723C20.0797 40.2723 23.6311 43.3994 24.2033 47.4531H50.7125C51.3016 43.3994 54.853 40.2723 59.1281 40.2723C63.4706 40.2723 67.022 43.3994 67.6111 47.4531Z" fill="black"/>
<path d="M55.1055 38.535C44.2998 38.535 35.4971 29.8816 35.4971 19.2592C35.4971 8.63687 44.2998 0 55.1055 0C65.9111 0 74.7139 8.63686 74.7139 19.2758C74.7139 29.8981 65.9111 38.535 55.1055 38.535ZM55.1055 2.34949C45.6126 2.34949 37.8871 9.94398 37.8871 19.2758C37.8871 28.6075 45.6126 36.1855 55.1055 36.1855C64.5983 36.1855 72.3238 28.591 72.3238 19.2592C72.3238 9.92743 64.5983 2.34949 55.1055 2.34949Z" fill="black"/>
<path d="M55.1055 28.1277C52.1432 28.1277 49.7195 25.8775 49.7195 23.1144C49.7195 22.4691 50.2581 21.9396 50.9145 21.9396C51.5709 21.9396 52.1095 22.4691 52.1095 23.1144C52.1095 24.5869 53.456 25.7782 55.1055 25.7782C56.7549 25.7782 58.1014 24.5869 58.1014 23.1144C58.1014 21.6418 56.7549 20.4505 55.1055 20.4505C52.1432 20.4505 49.7195 18.2003 49.7195 15.4372C49.7195 12.674 52.1432 10.4238 55.1055 10.4238C58.0678 10.4238 60.4915 12.674 60.4915 15.4372C60.4915 16.0824 59.9529 16.6119 59.2965 16.6119C58.64 16.6119 58.1014 16.0824 58.1014 15.4372C58.1014 13.9646 56.7549 12.7733 55.1055 12.7733C53.456 12.7733 52.1095 13.9646 52.1095 15.4372C52.1095 16.9097 53.456 18.101 55.1055 18.101C58.0678 18.101 60.4915 20.3512 60.4915 23.1144C60.4915 25.8775 58.0678 28.1277 55.1055 28.1277Z" fill="black"/>
<path d="M55.1055 29.8981C54.4491 29.8981 53.9105 29.3686 53.9105 28.7234V26.953C53.9105 26.3077 54.4491 25.7782 55.1055 25.7782C55.7619 25.7782 56.3005 26.3077 56.3005 26.953V28.7234C56.3005 29.3686 55.7619 29.8981 55.1055 29.8981Z" fill="black"/>
</g>
<defs>
<clipPath id="clip0_609_24">
<rect width="75" height="57" fill="white"/>
</clipPath>
</defs>
</svg>
