<svg width="87" height="49" viewBox="0 0 87 49" fill="none" xmlns="http://www.w3.org/2000/svg">
<g clipPath="url(#clip0_610_60)">
<path d="M40.2799 12.1223H16.3216C14.974 12.1223 13.9258 11.0885 13.9258 9.75923C13.9258 8.42999 14.974 7.39615 16.3216 7.39615H40.1302C41.4779 7.39615 42.526 8.42999 42.526 9.75923C42.6758 11.0885 41.6276 12.1223 40.2799 12.1223Z" fill="black"/>
<path d="M25.0065 42.1038H9.28383C7.93618 42.1038 6.888 41.07 6.888 39.7408C6.888 38.4115 7.93618 37.3777 9.28383 37.3777H24.8568C26.2044 37.3777 27.2526 38.4115 27.2526 39.7408C27.4023 41.07 26.3541 42.1038 25.0065 42.1038Z" fill="black"/>
<path d="M24.8568 27.1869H2.39583C1.04818 27.1869 0 26.1531 0 24.8238C0 23.4946 1.04818 22.4608 2.39583 22.4608H24.8568C26.2044 22.4608 27.2526 23.4946 27.2526 24.8238C27.2526 26.1531 26.2044 27.1869 24.8568 27.1869Z" fill="black"/>
<path d="M86.1003 8.57769C86.1003 4.29462 82.5065 0.75 78.1641 0.75L55.5534 0.897692H53.3073L50.9115 5.62385H55.4037L78.0143 5.47615C79.8112 5.47615 81.1589 6.80539 81.1589 8.57769V24.6762V40.7746C81.1589 42.3992 79.8112 43.8762 78.0143 43.8762L55.4037 43.7285L32.0443 43.8762L29.6484 48.75L55.4037 48.6023L78.0143 48.75C82.3568 48.75 85.9505 45.2054 85.9505 40.9223V24.8238L86.1003 8.57769Z" fill="black"/>
<path d="M76.3672 18.6208C71.7252 17.2915 68.5807 14.19 67.3828 9.75923H48.9648L33.8411 39.8885H39.9804H67.3828C68.5807 35.4577 71.7252 32.3562 76.3672 31.0269V24.8238V18.6208ZM60.944 28.8115C60.6445 30.5838 59.5963 31.9131 57.9492 32.6515C57.7995 32.7992 57.5 32.7992 57.3502 32.7992L57.0508 32.9469V35.6054H53.9062V33.0946H53.6067C53.457 33.0946 53.1575 32.9469 52.8581 32.9469C52.1094 32.7992 51.3607 32.5038 50.612 32.0608C50.1627 31.7654 50.013 31.3223 50.1627 30.8792C50.3125 30.5838 50.4622 30.2885 50.4622 29.9931L50.9114 28.6638L52.1094 29.2546C53.0078 29.6977 53.9062 29.9931 54.9544 29.9931H55.1041C55.4036 29.9931 55.8528 29.8454 56.1523 29.8454C56.7513 29.55 57.0508 29.1069 57.2005 28.5162C57.3502 27.9254 57.0508 27.3346 56.4518 26.8915C55.8528 26.4485 55.2539 26.1531 54.5052 25.8577C53.7565 25.5623 52.7083 25.1192 51.8099 24.3808C50.7617 23.4946 50.3125 22.3131 50.3125 20.9838C50.3125 19.6546 51.0612 18.3254 52.1094 17.4392C52.7083 16.9962 53.1575 16.7008 53.9062 16.5531L54.2057 16.4054V14.0423H57.2005V16.4054H57.5C57.7995 16.4054 58.0989 16.5531 58.3984 16.5531C58.8476 16.7008 59.1471 16.8485 59.5963 16.9962L59.8958 17.1438C60.345 17.2915 60.4948 17.8823 60.345 18.3254C60.1953 18.6208 60.0456 19.0638 59.8958 19.5069L59.4466 20.6885L58.6979 20.2454C58.2487 19.95 57.6497 19.8023 57.0508 19.6546C56.1523 19.5069 55.5534 19.5069 55.1041 19.6546C54.3554 19.95 54.2057 20.3931 54.2057 20.6885C54.056 21.2792 54.3554 21.7223 54.6549 21.87C55.1041 22.1654 55.7031 22.4608 56.4518 22.7562C57.3502 23.0515 58.2487 23.4946 58.9974 24.0854C60.4948 25.2669 61.0937 26.8915 60.944 28.8115Z" fill="black"/>
</g>
<defs>
<clipPath id="clip0_610_60">
<rect width="86.25" height="48" fill="white" transform="translate(0 0.75)"/>
</clipPath>
</defs>
</svg>
